<svg xmlns="http://www.w3.org/2000/svg" xmlns:xlink="http://www.w3.org/1999/xlink" width="500" zoomAndPan="magnify" viewBox="0 0 375 374.999991" height="500" preserveAspectRatio="xMidYMid meet" version="1.0"><defs><g/></defs><g fill="#e6e2da" fill-opacity="1"><g transform="translate(31.76148, 230.191752)"><g><path d="M 18.6875 -75.84375 C 18.3125 -76.769531 17.726562 -77.46875 16.9375 -77.9375 C 16.144531 -78.414062 15.253906 -78.726562 14.265625 -78.875 C 13.273438 -79.03125 12.25 -79.039062 11.1875 -78.90625 C 10.125 -78.769531 9.140625 -78.597656 8.234375 -78.390625 C 10.535156 -79.078125 12.878906 -79.476562 15.265625 -79.59375 C 17.648438 -79.71875 19.953125 -79.585938 22.171875 -79.203125 C 24.398438 -78.828125 26.476562 -78.234375 28.40625 -77.421875 C 30.34375 -76.609375 32.066406 -75.664062 33.578125 -74.59375 C 34.597656 -73.800781 35.484375 -72.957031 36.234375 -72.0625 C 36.984375 -71.175781 37.554688 -70.238281 37.953125 -69.25 C 38.484375 -67.882812 38.722656 -66.492188 38.671875 -65.078125 C 38.628906 -63.660156 38.332031 -62.320312 37.78125 -61.0625 C 37.238281 -59.8125 36.46875 -58.679688 35.46875 -57.671875 C 34.46875 -56.660156 33.285156 -55.890625 31.921875 -55.359375 C 30.554688 -54.816406 29.164062 -54.570312 27.75 -54.625 C 26.332031 -54.6875 24.992188 -54.988281 23.734375 -55.53125 C 22.484375 -56.070312 21.351562 -56.84375 20.34375 -57.84375 C 19.34375 -58.84375 18.578125 -60.023438 18.046875 -61.390625 C 17.429688 -62.941406 17.195312 -64.335938 17.34375 -65.578125 C 17.5 -66.828125 17.738281 -68 18.0625 -69.09375 C 18.382812 -70.1875 18.675781 -71.269531 18.9375 -72.34375 C 19.195312 -73.414062 19.113281 -74.582031 18.6875 -75.84375 Z M 38.765625 -25.171875 C 41.367188 -26.203125 43.71875 -27.789062 45.8125 -29.9375 C 47.90625 -32.09375 49.453125 -34.625 50.453125 -37.53125 C 49.679688 -31.84375 47.664062 -26.765625 44.40625 -22.296875 C 41.15625 -17.828125 36.894531 -14.550781 31.625 -12.46875 C 27.59375 -10.882812 23.457031 -10.238281 19.21875 -10.53125 C 14.988281 -10.832031 10.957031 -11.929688 7.125 -13.828125 C 3.300781 -15.722656 -0.148438 -18.351562 -3.234375 -21.71875 C -6.328125 -25.09375 -8.753906 -29.015625 -10.515625 -33.484375 C -12.273438 -37.953125 -13.175781 -42.46875 -13.21875 -47.03125 C -13.257812 -51.601562 -12.523438 -55.882812 -11.015625 -59.875 C -9.515625 -63.875 -7.316406 -67.429688 -4.421875 -70.546875 C -1.535156 -73.660156 1.921875 -76.007812 5.953125 -77.59375 C 4.585938 -77.050781 3.507812 -75.820312 2.71875 -73.90625 C 1.9375 -71.988281 1.460938 -69.648438 1.296875 -66.890625 C 1.128906 -64.128906 1.335938 -61.054688 1.921875 -57.671875 C 2.503906 -54.285156 3.472656 -50.890625 4.828125 -47.484375 C 6.515625 -43.203125 8.671875 -39.410156 11.296875 -36.109375 C 13.921875 -32.816406 16.757812 -30.160156 19.8125 -28.140625 C 22.875 -26.117188 26.050781 -24.828125 29.34375 -24.265625 C 32.644531 -23.703125 35.785156 -24.003906 38.765625 -25.171875 Z M 38.765625 -25.171875 "/></g></g></g><g fill="#e6e2da" fill-opacity="1"><g transform="translate(87.545299, 208.651792)"><g><path d="M 21.765625 -57.625 C 23.859375 -57.988281 25.816406 -57.644531 27.640625 -56.59375 C 29.472656 -55.550781 30.632812 -54 31.125 -51.9375 C 31.613281 -49.851562 31.285156 -47.882812 30.140625 -46.03125 C 28.992188 -44.1875 27.382812 -43.019531 25.3125 -42.53125 C 24.269531 -42.289062 23.25 -42.257812 22.25 -42.4375 C 21.257812 -42.613281 20.34375 -42.960938 19.5 -43.484375 C 18.65625 -44.015625 17.925781 -44.703125 17.3125 -45.546875 C 16.695312 -46.390625 16.269531 -47.332031 16.03125 -48.375 C 15.9375 -48.757812 15.878906 -49.289062 15.859375 -49.96875 C 15.878906 -51.34375 15.410156 -52.171875 14.453125 -52.453125 C 13.492188 -52.742188 12.179688 -52.21875 10.515625 -50.875 C 11.242188 -51.519531 12.070312 -52.191406 13 -52.890625 C 13.9375 -53.597656 14.894531 -54.269531 15.875 -54.90625 C 16.851562 -55.550781 17.847656 -56.128906 18.859375 -56.640625 C 19.867188 -57.160156 20.835938 -57.488281 21.765625 -57.625 Z M 19.75 -10.3125 C 20.03125 -9.144531 20.691406 -8.097656 21.734375 -7.171875 C 22.773438 -6.242188 23.867188 -5.816406 25.015625 -5.890625 L 2.4375 -0.578125 C 3.5 -1.023438 4.285156 -1.894531 4.796875 -3.1875 C 5.316406 -4.476562 5.4375 -5.707031 5.15625 -6.875 L 3.625 -13.390625 L -1.453125 -34.890625 L -2.75 -40.453125 L -3 -41.515625 C -3.289062 -42.753906 -3.953125 -43.816406 -4.984375 -44.703125 C -6.015625 -45.585938 -7.101562 -45.992188 -8.25 -45.921875 L 7.8125 -52.28125 L 8.109375 -52.34375 C 9.203125 -52.601562 9.878906 -52.1875 10.140625 -51.09375 L 13.046875 -38.734375 L 18.21875 -16.828125 Z M 19.75 -10.3125 "/></g></g></g><g fill="#e6e2da" fill-opacity="1"><g transform="translate(127.935557, 198.585772)"><g><path d="M 15.890625 -6.109375 C 15.992188 -5.046875 16.734375 -4.144531 18.109375 -3.40625 C 19.484375 -2.675781 21.132812 -2.40625 23.0625 -2.59375 C 25.25 -2.8125 27.210938 -3.273438 28.953125 -3.984375 C 26.710938 -2.960938 24.273438 -2.203125 21.640625 -1.703125 C 19.003906 -1.203125 16.535156 -1.238281 14.234375 -1.8125 C 11.941406 -2.382812 9.960938 -3.59375 8.296875 -5.4375 C 6.640625 -7.289062 5.625 -10.078125 5.25 -13.796875 L 3.5 -31.5 L 3.171875 -34.78125 L 2.609375 -40.453125 L 2.5 -41.546875 C 2.375 -42.804688 1.859375 -43.941406 0.953125 -44.953125 C 0.0546875 -45.972656 -0.96875 -46.523438 -2.125 -46.609375 L 14.640625 -50.796875 L 14.953125 -50.828125 C 16.066406 -50.941406 16.679688 -50.4375 16.796875 -49.3125 L 18.046875 -36.671875 L 18.421875 -32.984375 L 20.046875 -16.65625 C 20.171875 -15.40625 20.007812 -14.320312 19.5625 -13.40625 C 19.125 -12.488281 18.601562 -11.644531 18 -10.875 C 17.40625 -10.113281 16.878906 -9.359375 16.421875 -8.609375 C 15.972656 -7.867188 15.796875 -7.035156 15.890625 -6.109375 Z M 46.9375 -12.203125 C 47.050781 -11.003906 47.554688 -9.878906 48.453125 -8.828125 C 49.359375 -7.773438 50.390625 -7.207031 51.546875 -7.125 L 34.78125 -2.953125 L 34.46875 -2.921875 C 34.007812 -2.878906 33.597656 -3.003906 33.234375 -3.296875 C 32.878906 -3.597656 32.675781 -3.984375 32.625 -4.453125 L 29.9375 -31.515625 L 29.359375 -37.375 L 28.796875 -43.046875 L 28.6875 -44.140625 C 28.5625 -45.398438 28.039062 -46.535156 27.125 -47.546875 C 26.21875 -48.566406 25.191406 -49.117188 24.046875 -49.203125 L 40.828125 -53.40625 L 41.109375 -53.4375 C 42.242188 -53.539062 42.867188 -53.03125 42.984375 -51.90625 L 44.234375 -39.265625 L 44.8125 -33.5 L 46.828125 -13.28125 Z M 46.9375 -12.203125 "/></g></g></g><g fill="#e6e2da" fill-opacity="1"><g transform="translate(178.009547, 192.044432)"><g><path d="M 21.96875 -3.71875 C 21.863281 -2.519531 22.164062 -1.320312 22.875 -0.125 C 23.59375 1.0625 24.507812 1.800781 25.625 2.09375 L 2.484375 0.203125 C 3.640625 0.0976562 4.660156 -0.484375 5.546875 -1.546875 C 6.429688 -2.617188 6.925781 -3.753906 7.03125 -4.953125 L 7.578125 -11.625 L 8.953125 -28.578125 L 9.375 -33.65625 L 9.828125 -39.328125 L 9.921875 -40.421875 C 10.023438 -41.691406 9.722656 -42.90625 9.015625 -44.0625 C 8.304688 -45.21875 7.394531 -45.941406 6.28125 -46.234375 L 23.53125 -47.34375 L 23.84375 -47.3125 C 24.957031 -47.21875 25.46875 -46.609375 25.375 -45.484375 L 24.34375 -32.828125 L 23.890625 -27.34375 L 22.515625 -10.390625 Z M 48.203125 -1.578125 C 48.097656 -0.378906 48.394531 0.8125 49.09375 2 C 49.800781 3.195312 50.710938 3.941406 51.828125 4.234375 L 45.640625 3.734375 L 28.703125 2.34375 C 29.859375 2.238281 30.878906 1.65625 31.765625 0.59375 C 32.648438 -0.46875 33.144531 -1.597656 33.25 -2.796875 L 33.46875 -5.578125 L 35.640625 -32.203125 C 35.742188 -33.460938 36.097656 -34.503906 36.703125 -35.328125 C 37.304688 -36.148438 37.96875 -36.878906 38.6875 -37.515625 C 39.40625 -38.160156 40.054688 -38.8125 40.640625 -39.46875 C 41.234375 -40.125 41.566406 -40.910156 41.640625 -41.828125 C 41.734375 -42.960938 41.179688 -44 39.984375 -44.9375 C 38.796875 -45.875 37.203125 -46.425781 35.203125 -46.59375 C 33.078125 -46.769531 31.160156 -46.660156 29.453125 -46.265625 C 27.753906 -45.867188 26.554688 -45.53125 25.859375 -45.25 C 28.285156 -46.195312 31 -46.828125 34 -47.140625 C 37.007812 -47.453125 39.816406 -47.203125 42.421875 -46.390625 C 45.023438 -45.578125 47.140625 -44.066406 48.765625 -41.859375 C 50.398438 -39.648438 51.050781 -36.488281 50.71875 -32.375 L 48.421875 -4.359375 Z M 74.40625 0.5625 C 74.300781 1.757812 74.601562 2.953125 75.3125 4.140625 C 76.019531 5.335938 76.925781 6.082031 78.03125 6.375 L 71.859375 5.875 L 54.90625 4.484375 C 56.0625 4.378906 57.082031 3.796875 57.96875 2.734375 C 58.851562 1.671875 59.347656 0.539062 59.453125 -0.65625 L 59.671875 -3.4375 L 61.84375 -30.0625 C 61.945312 -31.320312 62.300781 -32.363281 62.90625 -33.1875 C 63.507812 -34.007812 64.171875 -34.738281 64.890625 -35.375 C 65.617188 -36.019531 66.273438 -36.671875 66.859375 -37.328125 C 67.453125 -37.984375 67.785156 -38.769531 67.859375 -39.6875 C 67.953125 -40.820312 67.382812 -41.859375 66.15625 -42.796875 C 64.925781 -43.742188 63.347656 -44.296875 61.421875 -44.453125 C 59.296875 -44.617188 57.378906 -44.503906 55.671875 -44.109375 C 53.972656 -43.710938 52.78125 -43.378906 52.09375 -43.109375 C 54.507812 -44.046875 57.21875 -44.671875 60.21875 -44.984375 C 63.21875 -45.304688 66.019531 -45.0625 68.625 -44.25 C 71.226562 -43.4375 73.34375 -41.925781 74.96875 -39.71875 C 76.601562 -37.507812 77.253906 -34.347656 76.921875 -30.234375 L 74.625 -2.21875 Z M 74.40625 0.5625 "/></g></g></g><g fill="#e6e2da" fill-opacity="1"><g transform="translate(254.25219, 199.088352)"><g><path d="M 37.359375 -62.453125 C 37.867188 -62.316406 38.222656 -62.046875 38.421875 -61.640625 C 38.628906 -61.242188 38.664062 -60.789062 38.53125 -60.28125 L 35.234375 -48.015625 L 34.453125 -45.109375 L 33.921875 -43.09375 L 21.40625 3.578125 C 21.25 4.148438 20.925781 4.578125 20.4375 4.859375 C 19.945312 5.140625 19.410156 5.203125 18.828125 5.046875 L 2.421875 0.640625 C 3.566406 0.753906 4.671875 0.363281 5.734375 -0.53125 C 6.796875 -1.425781 7.484375 -2.453125 7.796875 -3.609375 L 8.53125 -6.3125 L 14.296875 -27.84375 L 19.21875 -46.203125 L 19.71875 -48.03125 L 20.640625 -51.515625 L 22.15625 -57.125 L 22.4375 -58.1875 C 22.75 -59.34375 22.664062 -60.566406 22.1875 -61.859375 C 21.707031 -63.160156 20.945312 -64.0625 19.90625 -64.5625 L 37.046875 -62.53125 Z M 56.875 -12.484375 C 56.300781 -9.054688 55.25 -5.90625 53.71875 -3.03125 C 52.1875 -0.164062 50.363281 2.253906 48.25 4.234375 C 46.132812 6.222656 43.757812 7.675781 41.125 8.59375 C 38.5 9.507812 35.832031 9.742188 33.125 9.296875 C 30.925781 8.972656 28.898438 8.203125 27.046875 6.984375 C 25.203125 5.773438 23.59375 4.253906 22.21875 2.421875 C 23.132812 3.160156 24.007812 3.640625 24.84375 3.859375 C 26.457031 4.296875 28.117188 4.085938 29.828125 3.234375 C 31.546875 2.378906 33.195312 1.0625 34.78125 -0.71875 C 36.363281 -2.507812 37.820312 -4.671875 39.15625 -7.203125 C 40.488281 -9.734375 41.550781 -12.484375 42.34375 -15.453125 C 43.144531 -18.410156 43.597656 -21.304688 43.703125 -24.140625 C 43.804688 -26.984375 43.613281 -29.554688 43.125 -31.859375 C 42.644531 -34.160156 41.867188 -36.09375 40.796875 -37.65625 C 39.734375 -39.21875 38.394531 -40.21875 36.78125 -40.65625 C 35.757812 -40.925781 34.773438 -40.988281 33.828125 -40.84375 C 35.929688 -41.238281 38.25 -41.269531 40.78125 -40.9375 C 43.5 -40.488281 45.972656 -39.410156 48.203125 -37.703125 C 50.441406 -35.992188 52.300781 -33.851562 53.78125 -31.28125 C 55.269531 -28.707031 56.300781 -25.789062 56.875 -22.53125 C 57.445312 -19.269531 57.445312 -15.921875 56.875 -12.484375 Z M 56.875 -12.484375 "/></g></g></g><g fill="#e6e2da" fill-opacity="1"><g transform="translate(303.789732, 212.555507)"><g><path d="M 13.640625 1.84375 C 13.398438 2.757812 13.609375 3.765625 14.265625 4.859375 C 14.929688 5.960938 16.101562 6.9375 17.78125 7.78125 C 15.675781 6.769531 13.820312 5.535156 12.21875 4.078125 C 10.613281 2.617188 9.320312 1.070312 8.34375 -0.5625 C 7.363281 -2.195312 6.742188 -3.878906 6.484375 -5.609375 C 6.222656 -7.335938 6.421875 -9 7.078125 -10.59375 C 7.898438 -12.570312 9.289062 -13.96875 11.25 -14.78125 C 13.207031 -15.59375 15.175781 -15.59375 17.15625 -14.78125 C 18.132812 -14.375 18.992188 -13.800781 19.734375 -13.0625 C 20.472656 -12.320312 21.03125 -11.492188 21.40625 -10.578125 C 21.789062 -9.671875 21.988281 -8.707031 22 -7.6875 C 22.007812 -6.664062 21.8125 -5.660156 21.40625 -4.671875 C 20.957031 -3.566406 20.300781 -2.628906 19.4375 -1.859375 C 18.582031 -1.097656 17.613281 -0.539062 16.53125 -0.1875 C 15.863281 0.03125 15.25 0.296875 14.6875 0.609375 C 14.125 0.921875 13.773438 1.332031 13.640625 1.84375 Z M 42.3125 2.859375 C 41.675781 4.765625 40.582031 6.316406 39.03125 7.515625 C 37.488281 8.710938 35.664062 9.546875 33.5625 10.015625 C 31.46875 10.484375 29.203125 10.613281 26.765625 10.40625 C 24.328125 10.195312 21.90625 9.59375 19.5 8.59375 C 21.164062 9.28125 22.859375 9.1875 24.578125 8.3125 C 26.304688 7.4375 27.515625 6.171875 28.203125 4.515625 C 28.835938 2.972656 28.882812 1.242188 28.34375 -0.671875 C 27.800781 -2.585938 26.953125 -4.628906 25.796875 -6.796875 C 24.648438 -8.972656 23.390625 -11.242188 22.015625 -13.609375 C 20.648438 -15.984375 19.429688 -18.363281 18.359375 -20.75 C 17.296875 -23.144531 16.578125 -25.503906 16.203125 -27.828125 C 15.828125 -30.148438 16.085938 -32.390625 16.984375 -34.546875 C 17.742188 -36.390625 18.894531 -37.785156 20.4375 -38.734375 C 21.976562 -39.679688 23.6875 -40.289062 25.5625 -40.5625 C 27.445312 -40.832031 29.398438 -40.800781 31.421875 -40.46875 C 33.453125 -40.132812 35.332031 -39.609375 37.0625 -38.890625 C 37.613281 -38.660156 38.117188 -38.445312 38.578125 -38.25 C 39.035156 -38.0625 39.488281 -37.8125 39.9375 -37.5 C 38.375 -38.425781 36.78125 -38.628906 35.15625 -38.109375 C 33.539062 -37.585938 32.3125 -36.3125 31.46875 -34.28125 C 30.78125 -32.613281 30.671875 -30.851562 31.140625 -29 C 31.609375 -27.15625 32.359375 -25.222656 33.390625 -23.203125 C 34.429688 -21.191406 35.601562 -19.101562 36.90625 -16.9375 C 38.21875 -14.78125 39.390625 -12.597656 40.421875 -10.390625 C 41.460938 -8.191406 42.207031 -5.972656 42.65625 -3.734375 C 43.101562 -1.503906 42.988281 0.691406 42.3125 2.859375 Z M 46.515625 -15.9375 C 46.828125 -17.40625 47.066406 -19.09375 47.234375 -21 C 47.410156 -22.914062 47.34375 -24.835938 47.03125 -26.765625 C 46.71875 -28.703125 46.082031 -30.566406 45.125 -32.359375 C 44.175781 -34.160156 42.742188 -35.710938 40.828125 -37.015625 C 41.742188 -36.421875 42.566406 -35.828125 43.296875 -35.234375 C 44.023438 -34.648438 44.707031 -34.082031 45.34375 -33.53125 C 45.976562 -32.988281 46.625 -32.507812 47.28125 -32.09375 C 47.9375 -31.675781 48.679688 -31.320312 49.515625 -31.03125 C 50.035156 -30.90625 50.625 -30.8125 51.28125 -30.75 C 51.9375 -30.695312 52.410156 -30.753906 52.703125 -30.921875 Z M 46.515625 -15.9375 "/></g></g></g></svg>